<?xml version="1.0" encoding="UTF-8"?>
<svg id="Layer_1" xmlns="http://www.w3.org/2000/svg" version="1.1" viewBox="0 0 841.89 595.28">
  <!-- Generator: Adobe Illustrator 29.6.1, SVG Export Plug-In . SVG Version: 2.1.1 Build 9)  -->
  <defs>
    <style>
      .st0, .st1 {
        fill: none;
        stroke: #231f20;
        stroke-miterlimit: 10;
      }

      .st2, .st1 {
        isolation: isolate;
      }

      .st1 {
        font-family: ArialMT, Arial;
        font-size: 48px;
      }
    </style>
  </defs>
  <g>
    <path class="st0" d="M464.33,311.81h377.56v182.42c-1.02-.09-2-1.77-2.63-1.91-.88-.2-2.44,1.06-3.19-1.13-.49-1.46,1.42-2.58,1.11-4.63l-1.19-.59,2.35-1.18-7.87.6-.38-.99,3.15-.79-.48-2.66c-1.55-.48-3.53-.82-5-1.49-.64-.3-.87-1.24-1.82-1.36-.82-.1-1.6.44-2.34.41-9.93-.47-20.03-2.69-30.28-1.57l-32.84,5.5,2.26-1.75c-.66-.56-.51-1.74-.95-2.21-1.27-1.35-9.16-3.13-11.36-3.88-.57-.19-1.97-.58-2.15-1.19l20.45,2.75c.11-1.33-.94-2.31-1.35-3.5-.35-1.02.55-2.18-1.44-3.35-8.87-1.69-17.98-2.77-26.96-4.11-1.56-.23-7.89-.48-8.81-1.41-1.09-1.1.29-3.69.4-5.13.23-3.06.17-14.57-1.94-16.53-.22-.2-.38-.44-.69-.51-7.35,1.55-17.9,2.16-21.43,9.89-1.15,2.51-.34,5.11-4.62,3.21l-7.1-17.47,3.69.36.65-1.53c2.87.65,5.64,1.92,8.58,2.51.39.08.89-.15,1.33-.08.53.08,1.2.69,1.28.69.32-.02.44-.95.66-1.08,1.53-.93,5.49,2.15,6.84.33.46-.62-.87-3.42,1.21-4.31,2.43-.1,4.85,2.03,7.01,2.25.44.05,1.66-.01,2.39.01.11,0,.44-1.3,1.75-.73l-.78-1.96c2.59.09,4.87.77,7.47,1.18.46-2.4-2.34-3.59-2.75-5.9l1.96.39c.06-.86-.76-1.38.2-1.96.83,1.39,3.5.55,2.3-.82-.85-.97-5.33-3.1-5.64-3.71l1.57-.98c-2.85-.13-6.23-.66-8.65-2.17,1.53-.53,3.75.44,4.72-1.37-2.06-.92-13.56-3.24-13.35-5.71l1.77-1.37c.66-1.22-2.98-5.39-3.94-6.31-7.46-7.14-14.8-6.11-23.75-8.49-1.72-.46-2.83-.63-2.85-2.69-.02-1.51.58-6.65.91-8.18.27-1.28,1.47-1.82,2.65-2.07,6.16-1.31,12.17,4.63,18.36,5.28,1.41.15,8.22.64,7.04-1.92-.5-1.08-9.03-5.41-10.79-6.52-7.18-4.52-13.07-10.65-21.91-11.52-11.55-1.13-19.97-.96-28.08,8-.99,1.1-3.54,5.03-4.33,5.5-1.98,1.17-6.95.36-9.42,1-.41-3.88,9.1-8.59,9.04-11.61-.04-1.97-5.53-2.6-7.08-2.94,1.06-4.43.69-6.27-4.11-6.7s-12.2-.84-12.04,5.72c.06,2.3,2.47,12.39,3.78,13.93.74.86,2.17,1.14,2.14,2.38l-12.95-4.15-2.54-.2c-.03.97-1.38,1.67-1.43,1.87-.44,1.6,1.11,2.4,1.1,2.67,0,.28-.78.54-.55,1.39.05.2,1.64,2.74,1.84,2.92.88.81,2.88.96,3.43,1.49.3.29.4,1.16.88,1.68,3.28,3.54,7.07,4.22,10.97,6.34,1.35.73,7.58,4.51,8,5.37.35.73.32,1.61.75,2.39.93,1.7,3.12,1.81,4.82,2.24l.78-.78c2.81,1.37,2.56,2.38.69,4.56l.11.52c1.74.79,2.01,2.14,2.98,3.34.55.67,3.75,4.5,4.05,4.63,1.79.76,5.45-1.53,5.78-1.29.49.92-.08,1.93.16,2.76.43,1.48,2.32,2.73,2.23,4.9-.02.44-1.71,4.64-1.98,5.04-.55.83-3.31,2.44-3.97,3.6-.6,1.04,0,2.15-.76,2.58.31-3.28-4.16-6.77-4.56-9.42-.16-1.09.61-1.88.62-2.96.06-4.56-4.83-11.57-9.94-9.16-1.76.83-2.22,3.26-4.61.7-.2.69.5,1.05.61,1.54.43,1.86-4.64,3.09-4.56,6.5.09,3.81,2.58,7.04,6.04,8.55,2.11.92,7.14.88,8.09,2.53.71,1.22,1.3,6.15,1.56,7.88.47,3.09,1.01,13.58,2.83,15.25,2.16,1.99,5.76-.43,2.81,4.82-1.94,3.44-4.57,7.43-6.69,11-3.95,6.66-8.27,11.87-13.63,17.43-1.31,1.12-3.83.85-5.53.8-8.72-.28-18.32-1.67-27.13-2.37-26.22-2.1-52.14-5.3-78.26-7.48-5.07-.42-11.01-2.96-13.97,2.96.79,3.44,2.89,7.47,6.09,9.24,5.34,2.97,14.95,1.03,20.56,3.04,3.46,1.24,1.35,5.17,3.46,7.55.55.62,3.9,1.74,4.65,1.59.15-.03.96-1.54,2.62-.8l-.39-1.57c4.34.85,3.06-3.16,8.06-2.75,9.83.81,22.48,5.21,32.74,6.97,5.68.97,11.55,1.37,17.22,2.5l.52-.1c1.35-2.44.71-4.74,1.63-7.41l-10.23-1.18c2.97-.34,5.98.28,8.83.41,8.81.39,22.88-.19,30.99,2.05.66.18,1.42.95,1.67.96.54.03,1.15-.91,1.57-.93.38-.02.94.64,1.57.64s1.14-.63,1.62-.66c2.84-.15,4.09,1.13,6.03,2.89-6.42,16.93,16.74,10.86,25.79,9.97,1.99-.2,10.44-1.12,11.59-.59.5.23.73,1.01,1.47,1.28,1.55.55,3.63.2,5.23.31,2.41,5.02-.4,11.95,2.96,16.66,5.13,7.18,8.04-6.53,9.02-9.8,3.28,3.39,2.99,7.95,6.11,11.59,5.39,6.3,11.38.91,10.51-6.18-.28-2.27-4.39-14.68-3.83-15.24,1.99-.12,4.13.17,6.1,0,3.09-.26,4.2-.4,7.45-.38,1.6,0,3.38-.52,4.69-.4,2.43.22,10.49,4.9,13.63,6.06,11.38,4.19,23.62,4.6,35.48,6.6,9.48,1.6,15.89,2.4,23.87,7.98,1.93,1.35,5.94,5.35,7.7,6.06.18.07.64.1.58-.19-2.51-3.16-5.98-5.27-8.93-7.98-.42-.39-1.1-.41-.9-1.26,2.48,1.21,5.24,1.93,7.74,3.07,4.03,1.84,4.52,2.45,8.98,3.57,1.25.32,8.5,3.9,8.85,3.57-1.16-3.38-5.34-3.79-6.68-6.88,2.05-1.93,5.71,2.71,7.49.02,1.58-2.4-4.71-2.67-4.35-5.33l2.47.73c1-.4,1.13-1.33,1.06-2.31,2.09,1.17,3.72.38,5.9.79v64.08h-377.56v-283.07.05Z"/>
    <polygon class="st0" points="464.33 311.81 464.33 594.88 841.89 594.88 841.89 595.28 463.94 595.28 463.94 311.81 464.33 311.81"/>
    <g>
      <path class="st0" d="M740.03,477.33c-.25.71-2.34.44-2.94.38-1.55-.15-8.28-1.42-9.37-2.03-1.45-.82.38-2.28,1.03-2.22,1.15.11,5.77,2.32,7.37,2.87,1.25.43,2.61.77,3.92,1h-.01Z"/>
      <g>
        <path class="st0" d="M841.89,530.8c-2.17-.41-3.81.38-5.9-.79.07.98-.07,1.91-1.06,2.31l-2.47-.73c-.37,2.66,5.93,2.93,4.35,5.33-1.78,2.69-5.44-1.95-7.49-.02,1.34,3.09,5.52,3.49,6.68,6.88-.34.33-7.59-3.26-8.85-3.57-4.46-1.12-4.94-1.73-8.98-3.57-2.49-1.14-5.26-1.86-7.74-3.07-.2.85.47.87.9,1.26,2.95,2.71,6.42,4.82,8.93,7.98.06.29-.4.26-.58.19-1.76-.72-5.77-4.71-7.7-6.06-7.98-5.59-14.39-6.38-23.87-7.98-11.85-2-24.09-2.41-35.48-6.6-3.15-1.16-11.2-5.84-13.63-6.06-1.31-.12-3.09.41-4.69.4-3.25-.02-4.36.12-7.45.38-1.97.17-4.11-.13-6.1,0-.55.56,3.55,12.96,3.83,15.24.87,7.09-5.12,12.48-10.51,6.18-3.12-3.64-2.83-8.2-6.11-11.59-.98,3.27-3.89,16.98-9.02,9.8-3.36-4.71-.55-11.64-2.96-16.66-1.61-.12-3.69.24-5.23-.31-.75-.26-.97-1.05-1.47-1.28-1.15-.53-9.61.39-11.59.59-9.04.89-32.2,6.96-25.79-9.97-1.94-1.77-3.19-3.04-6.03-2.89-.48.03-1,.66-1.62.66s-1.19-.66-1.57-.64c-.43.02-1.03.95-1.57.93-.25-.01-1.01-.78-1.67-.96-8.1-2.23-22.18-1.66-30.99-2.05-2.85-.13-5.86-.75-8.83-.41l10.23,1.18c-.92,2.67-.28,4.96-1.63,7.41l-.52.1c-5.67-1.13-11.54-1.52-17.22-2.5-10.27-1.76-22.91-6.16-32.74-6.97-5-.41-3.72,3.6-8.06,2.75l.39,1.57c-1.66-.74-2.47.77-2.62.8-.75.15-4.1-.97-4.65-1.59-2.11-2.38,0-6.31-3.46-7.55-5.6-2.01-15.22-.07-20.56-3.04-3.19-1.78-5.3-5.8-6.09-9.24,2.96-5.92,8.9-3.39,13.97-2.96,26.12,2.18,52.04,5.38,78.26,7.48,8.8.7,18.41,2.09,27.13,2.37,1.7.05,4.22.33,5.53-.8,5.36-5.56,9.68-10.78,13.63-17.43,2.12-3.57,4.75-7.56,6.69-11,2.95-5.24-.64-2.83-2.81-4.82-1.82-1.67-2.36-12.16-2.83-15.25-.26-1.73-.85-6.65-1.56-7.88-.95-1.65-5.98-1.6-8.09-2.53-3.46-1.51-5.95-4.74-6.04-8.55-.08-3.41,4.99-4.64,4.56-6.5-.11-.48-.81-.85-.61-1.54,2.39,2.57,2.85.13,4.61-.7,5.11-2.41,10.01,4.6,9.94,9.16-.01,1.08-.79,1.87-.62,2.96.4,2.65,4.87,6.14,4.56,9.42.77-.42.16-1.53.76-2.58.67-1.16,3.42-2.77,3.97-3.6.26-.4,1.96-4.59,1.98-5.04.09-2.17-1.8-3.43-2.23-4.9-.24-.83.33-1.83-.16-2.76-.34-.24-3.99,2.04-5.78,1.29-.3-.13-3.5-3.96-4.05-4.63-.97-1.2-1.25-2.55-2.98-3.34l-.11-.52c1.87-2.18,2.12-3.19-.69-4.56l-.78.78c-1.7-.43-3.89-.54-4.82-2.24-.43-.78-.4-1.67-.75-2.39-.42-.86-6.65-4.63-8-5.37-3.9-2.11-7.69-2.79-10.97-6.34-.48-.51-.57-1.38-.88-1.68-.55-.53-2.55-.68-3.43-1.49-.2-.18-1.79-2.73-1.84-2.92-.22-.85.55-1.11.55-1.39s-1.54-1.07-1.1-2.67c.06-.2,1.41-.9,1.43-1.87l2.54.2,12.95,4.15c.03-1.24-1.4-1.52-2.14-2.38-1.31-1.54-3.73-11.63-3.78-13.93-.16-6.56,7.18-6.16,12.04-5.72s5.17,2.26,4.11,6.7c1.55.34,7.04.97,7.08,2.94.06,3.01-9.45,7.72-9.04,11.61,2.47-.64,7.44.17,9.42-1,.79-.47,3.34-4.4,4.33-5.5,8.11-8.95,16.53-9.13,28.08-8,8.84.87,14.73,6.99,21.91,11.52,1.76,1.11,10.29,5.43,10.79,6.52,1.18,2.55-5.63,2.07-7.04,1.92-6.19-.65-12.2-6.58-18.36-5.28-1.18.25-2.37.79-2.65,2.07-.33,1.53-.92,6.66-.91,8.18.02,2.06,1.13,2.23,2.85,2.69,8.96,2.39,16.3,1.36,23.75,8.49.96.92,4.6,5.09,3.94,6.31l-1.77,1.37c-.21,2.47,11.29,4.79,13.35,5.71-.96,1.81-3.18.84-4.72,1.37,2.42,1.51,5.8,2.04,8.65,2.17l-1.57.98c.3.6,4.79,2.74,5.64,3.71,1.21,1.37-1.46,2.21-2.3.82-.95.57-.14,1.1-.2,1.96l-1.96-.39c.4,2.3,3.21,3.49,2.75,5.9-2.59-.41-4.87-1.09-7.47-1.18l.78,1.96c-1.31-.57-1.64.73-1.75.73-.73-.03-1.95.03-2.39-.01-2.16-.22-4.58-2.34-7.01-2.25-2.07.88-.75,3.68-1.21,4.31-1.35,1.82-5.31-1.26-6.84-.33-.22.13-.34,1.06-.66,1.08-.08,0-.75-.6-1.28-.69-.44-.07-.94.16-1.33.08-2.94-.59-5.71-1.87-8.58-2.51l-.65,1.53-3.69-.36,7.1,17.47c4.29,1.9,3.47-.69,4.62-3.21,3.53-7.72,14.08-8.33,21.43-9.89.31.07.48.31.69.51,2.11,1.96,2.17,13.46,1.94,16.53-.11,1.44-1.48,4.02-.4,5.13.92.94,7.25,1.18,8.81,1.41,8.98,1.34,18.09,2.41,26.96,4.11,1.99,1.17,1.08,2.33,1.44,3.35.41,1.18,1.46,2.16,1.35,3.5l-20.45-2.75c.18.61,1.58,1,2.15,1.19,2.2.75,10.08,2.54,11.36,3.88.44.47.29,1.65.95,2.21l-2.26,1.75,32.84-5.5c10.25-1.12,20.35,1.1,30.28,1.57.74.04,1.52-.51,2.34-.41.95.12,1.18,1.07,1.82,1.36,1.46.68,3.44,1.01,5,1.49l.48,2.66-3.15.79.38.99,7.87-.6-2.35,1.18,1.19.59c.31,2.05-1.6,3.17-1.11,4.63.74,2.19,2.3.93,3.19,1.13.64.14,1.61,1.82,2.63,1.91v36.56-.04ZM669.63,457.67c-1.81,4.31-2.47,9.09-4.66,13.24-3.55,6.71-12.35,13.18-12.66,21.19-.02.52-.09,1.26.38,1.58,3.39.13,6.7,1.99,9.84-.04,1.47-.96,6.5-7.26,7.87-9.04,1.9-2.45,8.05-10.78,8.26-13.4.06-.69-.06-1-.29-1.61-.91-2.38-5.67-9.59-7.55-11.33-.39-.36-.56-.72-1.19-.58h0ZM740.03,477.33c-1.31-.23-2.66-.57-3.92-1-1.6-.55-6.22-2.76-7.37-2.87-.65-.06-2.48,1.41-1.03,2.22,1.09.62,7.82,1.88,9.37,2.03.6.06,2.69.33,2.94-.38h.01Z"/>
        <path class="st0" d="M669.63,457.67c.63-.14.8.22,1.19.58,1.88,1.74,6.63,8.95,7.55,11.33.24.61.35.92.29,1.61-.21,2.63-6.36,10.95-8.26,13.4-1.37,1.77-6.4,8.08-7.87,9.04-3.14,2.04-6.45.17-9.84.04-.47-.32-.4-1.06-.38-1.58.31-8,9.11-14.47,12.66-21.19,2.19-4.14,2.85-8.93,4.66-13.24h0Z"/>
      </g>
    </g>
  </g>
  <g>
    <path class="st0" d="M132.15,283.46H0V0h377.95v283.46h-97.54c-.65-1.47-.27-3.45.49-4.82.69-1.25,1.78-1.37,2.46-2.26,1.31-1.73,1.28-9.64,1-12-.11-.97-.69-1.61-.78-2.37-.92-8.25,5.14-17.94,3.43-26.62-10.22-18.31-18.61-37.38-25.97-57-1.49-3.98-5.16-10.18-4.52-14.16.29-1.8,3.65-10,3.24-10.92-.9-1.17-2.86-.84-4.22-.67-1.79.23-5.28,2.15-6.38.67-.9-1.21-2.56-8.05-3.01-9.96-2.64-11.12-1.02-18.07-10.6-25.97-1.11-.91-4.86-2.79-5.08-3.96-.39-2.02-.27-11.5,0-13.78.13-1.1.69-1.83.82-3.11.35-3.34-.78-6.7-.41-10.04l2.86,15.81c.34.45.54,1.99.78,2.2.22.19.9-.02,1.03.11.38.39-.56,1.91.84,1.54l-2.29-36.3c.72-2.07,5.96-.66,7.92-1.81.59-.34,1.83-2.99,1.87-3.76.27-5.99-11.45-15.91-13.4-21.81,4.02.62,9.16,2.12,13.19,1.59,1.34-.18,2.27-1.42,2.42-2.68.3-2.48-1.25-3.09,1.26-4.69.23-.87-.78-1.55-.67-2.21.11-.62,1.35-1.64,1.49-2.86.23-1.91-.79-3.89-.82-5.06-.03-.96.86-1.99.86-3.55,0-2.37-1.53-3.28-1.62-4.35-.06-.74.84-1.61.83-3.11,0-2.03-1.31-3.94-1.43-5.28-.06-.7.81-1.12.9-1.84.21-1.59-1.28-3.5-1.38-4.76s1.29-3.22-1.05-3.27c-10.5.79-22.35-.98-32.69,0-1.61.15-9.14,5.13-10.41,6.5-.99,1.06-1.49,2.38-2.01,3.69-4.89-.94-9.58-.97-14.44.31-3.53.93-5.05,2.71-7.74,4.88l-.53-.08c-1.99-4.8-8.21-5.68-12.84-6.23-10.2-1.21-19.95.85-29.5,4.31-4.55,1.65-7.88,2.61-7.68,8.45.08,2.54,1.71,3.56,2.55,5.35,1.09,2.32,2.77,4.94,3.54,6.68.48,1.1.38,2.32,1.07,3.64.64,1.23,3.01,3.14,3.3,3.81.36.83-.41,1.48.07,2.62.52,1.25,3,3.13,3.62,4.31.42.8-.03,1.38.19,2.09.24.77,3.77,4.34,4.58,4.89,2.05,1.4,3.21.24,3.16,3.57-.02,1.01-.44,1.93-.43,2.75.06,4.81,3.5,9.95,5.12,14.35l.39-1.97c1.94.75.77,2.22.92,3.29.32,2.35,1.36,5.14.3,7.57-.47,1.08-1.78,1.25-1.95,2-.11.5.29,1.06.25,1.5-.6,6.87-.99,13.79-1.84,20.6.42.23,1.11.2,1.44.53.95.95.28,6.99-.31,8.25-.24.51-.98.56-1.36,1.09-.66.91-1.69,2.84-2.56,4.14-3.89,5.83-7.8,11.69-11.73,17.37-1.15,1.66-1.26,3.54-1.73,4.36-.1.17-1.04.49-1.48,1.07-4.89,6.34-7.53,15.53-11.09,22.33-1.21,2.3-1.04,4.54-1.58,6.67-.19.74-1.19,1.4-1.39,2.15-1.43,5.5-2.75,11.19-3.67,16.77-.54,3.29-.85,6.49-1.36,9.65-.17,1.04-.57,2.87-.58,3.78-.02,1.19.79,2.1.72,2.65-.05.39-.8,1.26-.99,2.15-.94,4.32-.78,8.98-.86,13.26-.02,1.06-.57,2.09-.48,3.16.07.79.89.51.84.76-.12.55-1.27,1.49-1.45,2.42-.31,1.63.43,4.25.51,5.91.04.79-.62,3.15-.18,3.61.14.15.93,0,1.31.44.53.59.29,2.18,1.18,2.75,1.16-.82,4.01-4.77,5.34-4.52,1.9.35,3.26,3.44,4.89,4.53l1.38-2.75,1.19.22c2.12-2.71-.03-6.23,2.15-8.86.14,3.04,3.71,5.54,2.77,8.66-.36,1.21-2.7,4.09-3.43,5.61-1.51,3.12-2.41,5.92-1.87,9.48.19,1.27,1.25,2.87,1.61,4.29.63,2.5.08,5.41,2.32,7.11,1.29.98,3.43.91,3.5,2.81l-2.34,12.35-.03-.02Z"/>
    <path class="st0" d="M132.15,283.46l2.34-12.35c-.07-1.9-2.21-1.83-3.5-2.81-2.24-1.71-1.69-4.61-2.32-7.11-.36-1.42-1.42-3.02-1.61-4.29-.54-3.57.37-6.36,1.87-9.48.73-1.52,3.07-4.4,3.43-5.61.94-3.12-2.63-5.62-2.77-8.66-2.17,2.63-.03,6.15-2.15,8.86l-1.19-.22-1.38,2.75c-1.62-1.09-2.98-4.18-4.89-4.53-1.33-.24-4.18,3.7-5.34,4.52-.89-.57-.66-2.16-1.18-2.75-.38-.43-1.17-.29-1.31-.44-.44-.46.22-2.82.18-3.61-.08-1.67-.82-4.29-.51-5.91.18-.92,1.34-1.87,1.45-2.42.05-.25-.77.03-.84-.76-.09-1.07.46-2.1.48-3.16.07-4.29-.08-8.95.86-13.26.19-.89.93-1.75.99-2.15.08-.55-.74-1.46-.72-2.65.01-.91.41-2.74.58-3.78.51-3.16.82-6.36,1.36-9.65.92-5.58,2.25-11.27,3.67-16.77.19-.75,1.2-1.41,1.39-2.15.54-2.13.38-4.37,1.58-6.67,3.56-6.8,6.2-15.99,11.09-22.33.44-.57,1.38-.9,1.48-1.07.48-.82.59-2.71,1.73-4.36,3.93-5.67,7.84-11.54,11.73-17.37.87-1.3,1.9-3.23,2.56-4.14.38-.53,1.12-.58,1.36-1.09.6-1.27,1.27-7.3.31-8.25-.33-.33-1.02-.3-1.44-.53.85-6.81,1.24-13.73,1.84-20.6.04-.44-.37-1-.25-1.5.17-.74,1.48-.91,1.95-2,1.06-2.42.02-5.21-.3-7.57-.14-1.07,1.02-2.54-.92-3.29l-.39,1.97c-1.61-4.4-5.05-9.54-5.12-14.35,0-.81.41-1.74.43-2.75.05-3.33-1.11-2.17-3.16-3.57-.81-.55-4.34-4.12-4.58-4.89-.23-.72.23-1.29-.19-2.09-.62-1.18-3.1-3.06-3.62-4.31-.47-1.14.29-1.79-.07-2.62-.29-.67-2.65-2.58-3.3-3.81-.69-1.32-.59-2.54-1.07-3.64-.77-1.74-2.45-4.36-3.54-6.68-.84-1.79-2.46-2.81-2.55-5.35-.19-5.84,3.13-6.8,7.68-8.45,9.55-3.46,19.3-5.52,29.5-4.31,4.63.55,10.85,1.43,12.84,6.23l.53.08c2.69-2.17,4.21-3.94,7.74-4.88,4.85-1.29,9.55-1.25,14.44-.31.51-1.32,1.02-2.63,2.01-3.69,1.28-1.37,8.8-6.34,10.41-6.5,10.33-.97,22.19.79,32.69,0,2.34.05.94,1.95,1.05,3.27.11,1.32,1.59,3.17,1.38,4.76-.09.72-.96,1.14-.9,1.84.12,1.34,1.43,3.25,1.43,5.28,0,1.5-.89,2.37-.83,3.11.09,1.07,1.63,1.98,1.62,4.35,0,1.56-.88,2.59-.86,3.55.03,1.18,1.05,3.15.82,5.06-.15,1.22-1.38,2.24-1.49,2.86-.11.66.9,1.34.67,2.21-2.51,1.6-.96,2.22-1.26,4.69-.15,1.26-1.08,2.5-2.42,2.68-4.04.53-9.18-.97-13.19-1.59,1.95,5.9,13.67,15.83,13.4,21.81-.04.78-1.28,3.42-1.87,3.76-1.97,1.15-7.2-.26-7.92,1.81l2.29,36.3c-1.4.37-.46-1.15-.84-1.54-.13-.13-.8.08-1.03-.11-.24-.2-.44-1.75-.78-2.2l-2.86-15.81c-.37,3.35.76,6.71.41,10.04-.13,1.29-.69,2.01-.82,3.11-.26,2.27-.38,11.76,0,13.78.23,1.17,3.97,3.05,5.08,3.96,9.58,7.9,7.96,14.85,10.6,25.97.46,1.91,2.11,8.75,3.01,9.96,1.11,1.48,4.6-.44,6.38-.67,1.37-.18,3.32-.51,4.22.67.41.93-2.96,9.13-3.24,10.92-.64,3.98,3.03,10.18,4.52,14.16,7.36,19.61,15.75,38.69,25.97,57,1.71,8.68-4.35,18.37-3.43,26.62.08.76.66,1.4.78,2.37.27,2.36.3,10.26-1,12-.67.89-1.77,1.01-2.46,2.26-.76,1.37-1.13,3.35-.49,4.82h-148.27l.04.02ZM149.35,152.84c.34-.29.48-1.22.51-1.69-.48-.61.34-4.11-.6-4.11-.7,0-.19,1.57-.48,2.23-.6,1.4-3.49,2.41-1.49,4.43.44-.62,1.71-.57,2.07-.87h0ZM140.99,164.74c-.38,1.05-2.71,2.69-2.9,3.42-.18.69.32,1.33.17,2.09-.32,1.61-2.77,4.83-3.15,6.24-2.25,8.4-4.6,17.23-5.73,25.43-.22,1.58.28,4.9,0,7.03-.08.6-.73,1.07-.79,1.62-.09.84.73,1.3.81,1.96.1.88-.78,1.69-.82,2.73-.1,2.4,1.15,5.58.03,8.25l.59,7.66c3.29-7.13,6.46-14.35,9.43-21.62,5.09-12.44,8.15-18.84,8.48-32.81.17-7.04-.93-7.63-6.11-12h0Z"/>
    <path class="st0" d="M140.99,164.74c5.19,4.37,6.28,4.96,6.11,12-.33,13.96-3.39,20.37-8.48,32.81-2.97,7.27-6.14,14.49-9.43,21.62l-.59-7.66c1.12-2.67-.13-5.85-.03-8.25.04-1.04.92-1.85.82-2.73-.08-.66-.9-1.12-.81-1.96.06-.56.7-1.02.79-1.62.29-2.13-.2-5.45,0-7.03,1.13-8.2,3.48-17.03,5.73-25.43.38-1.4,2.82-4.63,3.15-6.24.15-.75-.34-1.39-.17-2.09.19-.74,2.52-2.37,2.9-3.42h0Z"/>
    <path class="st0" d="M149.35,152.84c-.36.31-1.62.25-2.07.87-2-2.02.89-3.03,1.49-4.43.28-.66-.22-2.23.48-2.23.95,0,.12,3.5.6,4.11-.03.47-.17,1.4-.51,1.69h0Z"/>
  </g>
  <g>
    <path class="st0" d="M581.53,283.46h-117.59V0h377.95v283.46h-60.57c-.82-2.3-1.75-4.63-2.81-6.82-1.44-3.01-5.24-8.35-5.98-10.96-.26-.91-.15-2.71-.37-3.92-.36-1.98-2.52-10.66-.8-11.74,1.62-1.02,7.22-1.45,9.49-2.21.97-.32,4.93-2.33,5.19-3.07l-.8-.78,3.56-4.71c-.11-.55-3.19-.9-3.78-.94-5.85-.41-9.37,3.63-14.3,4.51-.31.05-.58.22-.93.12-1.11-.31-2.14-8.07-2.49-9.72-1.28-6.04-2.5-12.19-3.77-18.25-.37-1.79-2.48-8.18-1.69-9.36.43-.64,2.97-.44,2.87-2.47-.09-1.64-3.36-4.88-4.12-6.85-.85-2.21-.82-15.46-.5-18.38.16-1.49.98-3,1.19-4.52l4.71,10.61c.28-1.37-.85-3.58-.58-4.77.16-.69.95-1.06,1.17-1.53.78-1.69-1.17-8.32-.98-10.6,1.54,1.76,1.46,4.88,2.17,7.07.89,2.74,4.45,11.62,5.91,13.75.21.31.51.54.77.8l-1.37-13.36,4.15,6.66,2.92,3.17c-.06-1.76.09-3.56.02-5.32-1.42-34,2.75-70.41-10.05-102.79-1.32-3.35-4.2-7.75-5.03-11.09-1.05-4.22-.64-7.51-2.56-11.99-4.63-10.81-15.82-22.15-28.55-20.54-1.88.24-6.18,2.44-7.31,2.16-2.3-1.79-5.3-2.22-7.6-3.84-2.67-1.88-5.32-5.31-8.16-7.56-2.46-1.96-5.19-3.46-7.81-5.17-1.15-.75-2.11-2.52-3.75-2.56-4.78,1.97-11.2.89-14.3,5.79-4.14,6.53-1.62,16.98,1.48,23.48-3.13,2.04-6.7,3.41-9.92,5.42-8.46,5.29-18.12,14.77-21.81,24.19-3.1,7.89-1.16,17.28-7.17,23.9l1.22-.36,2.71-1.8c-.13.66-.27,1.92-.02,2.49.21.46.87.14,1.09.33.94.83.51,7.98,1.48,9.76.08.14.46.5.59.39l1-1.19,1.77,4.33.79-.2-.6-2.94c.75.63,1.47,3.57,2.03,3.96.7.5,1.58.01,2.11.2.12.05,2.21,1.1,2.32,1.17,1.32.87,3.69,3.94,4.95,4.49,1.48.65-1.06-3.39-.59-3.93l1.97,3.14.79-.2.38-1.76c.44,1.92.71,4.85.31,6.79-.53,2.58-4.66,4.93-4.08,6.98s4.58,2.5,5.96,3.9,1.01,3.43,1.95,4.74c.62.88,1.89,1.11,2.43,1.7.4.43.49,1.26,1.08,1.87,2.21,2.3,4.9,3.89,5.33,7.64.34,2.98-1.08,7.32-.8,9.02.15.92,1.41,1.6,1.56,3.21.21,2.2-2.45,4.42,1.61,4.26l.4,16.15c.07,1.99-1.51,3.66-2.18,5.29-.44,1.06-1.59,5.71-2.75,5.8-3.22-2.51-12.67-4.05-13.55,1.49-.48,3.03-.08,7.4-.42,10.59-.46,4.41-8.31,9.09-10.6,13-.38.44-.71.6-1.3.51-.91-.13-4.38-2.1-5.69-2.61-5.47-2.09-11.13-3.95-16.71-5.7-4.13-1.29-12.55-4.42-16.33-4.92-1.3-.17-2.07.33-3.22.13l-4.56-6.09c-.22-5.95-.14-11.91-2.59-17.46-3.18-7.22-7.3-7.81-14.69-7.33-1.22.08-6.2,1.17-6.64,1.09-1.49-.28-1.51-4.57-1.42-5.82h-1.17c-1.18,3.62,1.87,5.77-2.38,7.66-3.9,1.74-10.19,2.54-12.76,6.51-.49.76-3.34,10.53-3.39,11.57-.15,2.7,1.48,4.77,1.9,7.18.55,3.16.17,5.68,1.71,8.9.91,1.9,6.89,8.97,8.6,10.28,5.56,4.28,15.21,4.37,21.67,6.34-1.49,5.13-3.37,10.13-4.72,15.31-1.48,5.67-2.2,11.9-3.85,17.38-2.07,6.9-6.79,13.81-8.76,20.92l-.04.03Z"/>
    <path class="st0" d="M677.1,283.46h-4.72l5.51-24.77c1.08.51.89,2.3,1.13,3.3l-1.92,21.47h0Z"/>
    <g>
      <path class="st0" d="M581.53,283.46c1.97-7.11,6.69-14.03,8.76-20.92,1.65-5.48,2.37-11.71,3.85-17.38,1.36-5.18,3.23-10.18,4.72-15.31-6.46-1.96-16.11-2.05-21.67-6.34-1.7-1.31-7.69-8.38-8.6-10.28-1.55-3.23-1.16-5.74-1.71-8.9-.42-2.41-2.05-4.49-1.9-7.18.06-1.04,2.9-10.81,3.39-11.57,2.57-3.98,8.85-4.77,12.76-6.51,4.25-1.89,1.2-4.04,2.38-7.66h1.17c-.09,1.24-.07,5.53,1.42,5.81.44.08,5.42-1.01,6.64-1.09,7.39-.48,11.51.1,14.69,7.33,2.45,5.55,2.37,11.52,2.59,17.46l4.56,6.09c1.16.2,1.93-.3,3.22-.13,3.78.5,12.2,3.63,16.33,4.92,5.59,1.75,11.24,3.62,16.71,5.7,1.31.5,4.78,2.47,5.69,2.61.59.09.92-.07,1.3-.51,2.29-3.91,10.14-8.59,10.6-13,.33-3.19-.07-7.56.42-10.59.88-5.54,10.34-4,13.55-1.49,1.15-.09,2.31-4.75,2.75-5.8.67-1.63,2.25-3.3,2.18-5.29l-.4-16.15c-4.06.15-1.4-2.06-1.61-4.26-.15-1.61-1.41-2.29-1.56-3.21-.28-1.71,1.14-6.04.8-9.02-.43-3.75-3.12-5.35-5.33-7.64-.59-.61-.68-1.44-1.08-1.87-.55-.59-1.81-.82-2.43-1.7-.93-1.31-.62-3.39-1.95-4.74s-5.36-1.78-5.96-3.9,3.55-4.39,4.08-6.98c.4-1.94.13-4.87-.31-6.79l-.38,1.76-.79.2-1.97-3.14c-.47.54,2.07,4.57.59,3.93-1.26-.55-3.64-3.61-4.95-4.49-.11-.07-2.2-1.12-2.32-1.17-.53-.19-1.41.29-2.11-.2-.56-.4-1.28-3.34-2.03-3.96l.6,2.94-.79.2-1.77-4.33-1,1.19c-.13.11-.51-.25-.59-.39-.97-1.77-.53-8.93-1.48-9.76-.22-.2-.88.13-1.09-.33-.26-.57-.12-1.83.02-2.49l-2.71,1.8-1.22.36c6.01-6.62,4.07-16,7.17-23.9,3.7-9.42,13.36-18.9,21.81-24.19,3.22-2.01,6.79-3.38,9.92-5.42-3.1-6.51-5.61-16.96-1.48-23.48,3.11-4.9,9.52-3.82,14.3-5.79,1.64.04,2.6,1.81,3.75,2.56,2.62,1.71,5.34,3.21,7.81,5.17,2.84,2.26,5.49,5.68,8.16,7.56,2.3,1.62,5.3,2.04,7.6,3.84,1.12.28,5.42-1.93,7.31-2.16,12.73-1.6,23.92,9.73,28.55,20.54,1.92,4.48,1.51,7.77,2.56,11.99.83,3.34,3.71,7.74,5.03,11.09,12.8,32.38,8.64,68.78,10.05,102.79.07,1.77-.08,3.56-.02,5.32l-2.92-3.17-4.15-6.66,1.37,13.36c-.26-.26-.56-.5-.77-.8-1.45-2.13-5.02-11.01-5.91-13.75-.71-2.19-.63-5.31-2.17-7.07-.19,2.27,1.76,8.91.98,10.6-.22.48-1.01.85-1.17,1.53-.27,1.19.86,3.4.58,4.77l-4.71-10.61c-.21,1.51-1.03,3.02-1.19,4.52-.32,2.92-.35,16.17.5,18.38.76,1.98,4.04,5.21,4.12,6.85.11,2.03-2.43,1.83-2.87,2.47-.79,1.18,1.31,7.57,1.69,9.36,1.27,6.07,2.49,12.21,3.77,18.25.35,1.65,1.38,9.41,2.49,9.72.35.1.62-.06.93-.12,4.93-.88,8.45-4.92,14.3-4.51.6.04,3.68.39,3.78.94l-3.56,4.71.8.78c-.26.74-4.22,2.75-5.19,3.07-2.27.76-7.87,1.19-9.49,2.21-1.72,1.08.43,9.77.8,11.74.22,1.21.11,3.02.37,3.92.75,2.61,4.54,7.95,5.98,10.96,1.05,2.2,1.99,4.53,2.81,6.82h-104.22l1.92-21.47c-.24-1-.06-2.79-1.13-3.3l-5.51,24.77h-90.85l.04-.02ZM702.62,149.05l-1.13-.05-.78,12.98c1.98-1.59,4.23-2.96,5.83-4.97l-3.92-7.95h0Z"/>
      <path class="st0" d="M702.62,149.05l3.92,7.95c-1.6,2.01-3.85,3.38-5.83,4.97l.78-12.98,1.13.05h0Z"/>
    </g>
  </g>
  <g>
    <path class="st0" d="M377.95,311.12v283.46H0v-283.46h377.95ZM229.6,374.12c-4.65-1.98-8.01,4.96-9.69,8.41-.84,1.73-2.76,7.89-4.27,8.33-1.16.34-5.33-1.31-6.85-1.65-7.53-1.65-15.7-4.12-23.34-4.22-14.61-.18-24.99,15.93-28.8,28.25-7.13,23.07-5.54,71.65,27.82,71.43,34.24,26.2,68.57-13.39,76.49-45.39,5.69-23.01-6.24-34.88-26.84-41.59-3.71-1.21-7.45-1.39-11.06-2.9-.85-.99,2.29-5.94,2.85-7.06.35-.7.38-1.58.8-2.35.82-1.5,6.18-8.16,4.94-9.41h-1.97l-.08-1.87v.02Z"/>
    <path class="st0" d="M229.6,374.12l.08,1.87h1.97c1.24,1.25-4.12,7.91-4.94,9.41-.42.77-.45,1.64-.8,2.35-.56,1.12-3.7,6.08-2.85,7.06,3.6,1.5,7.35,1.69,11.06,2.9,20.6,6.71,32.53,18.58,26.84,41.59-7.91,32-42.25,71.59-76.49,45.39-33.36.23-34.96-48.36-27.82-71.43,3.81-12.33,14.19-28.44,28.8-28.25,7.64.1,15.81,2.57,23.34,4.22,1.53.33,5.69,1.98,6.85,1.65,1.51-.44,3.43-6.6,4.27-8.33,1.68-3.45,5.04-10.39,9.69-8.41v-.02Z"/>
  </g>
  <g class="st2">
    <text class="st1" transform="translate(398.82 81.98) rotate(90)"><tspan x="0" y="0">By Oli and Annabel</tspan></text>
  </g>
</svg>